<?xml version="1.0" encoding="UTF-8" ?>
<!DOCTYPE svg PUBLIC "-//W3C//DTD SVG 1.1//EN" "http://www.w3.org/Graphics/SVG/1.1/DTD/svg11.dtd">
<svg width="367pt" height="236pt" viewBox="0 0 367 236" version="1.1" xmlns="http://www.w3.org/2000/svg">
<g id="#040b0eff">
<path fill="#040b0e" opacity="1.00" d=" M 0.00 0.00 L 367.00 0.00 L 367.00 236.00 L 0.00 236.00 L 0.00 0.00 M 120.40 52.56 C 117.95 62.15 115.89 71.86 114.71 81.69 C 130.07 92.75 144.44 105.14 159.94 116.01 C 165.51 119.33 174.46 115.58 177.82 122.23 C 182.08 130.17 172.91 140.29 164.61 136.42 C 158.44 133.16 159.04 124.43 153.37 120.67 C 139.89 110.38 126.42 100.09 113.02 89.69 C 110.56 95.79 109.79 102.39 108.55 108.80 C 155.19 138.54 202.53 167.19 249.37 196.63 C 254.26 199.64 259.01 202.96 264.30 205.27 C 262.40 202.38 260.16 199.73 257.79 197.22 C 232.85 170.17 207.04 143.94 182.16 116.84 C 161.44 95.54 141.99 72.97 120.40 52.56 M 233.14 53.10 C 218.02 70.08 202.31 86.54 187.63 103.91 C 192.15 108.54 195.86 114.13 201.20 117.88 C 206.43 117.54 210.23 113.12 213.92 109.90 C 218.54 106.53 218.31 100.10 222.11 96.07 C 225.66 94.22 230.22 94.51 233.79 96.21 C 236.85 99.45 239.93 103.65 237.40 108.37 C 234.49 115.41 225.94 114.01 219.93 115.47 C 215.47 117.10 211.99 120.61 208.30 123.45 C 207.87 127.72 212.27 130.45 214.57 133.41 C 231.84 150.67 247.22 169.76 264.80 186.68 C 263.49 174.18 259.95 162.07 257.18 149.85 C 249.98 117.81 242.49 85.83 235.17 53.81 C 234.66 53.63 233.64 53.28 233.14 53.10 M 226.36 100.48 C 225.61 101.90 224.86 103.32 224.12 104.75 C 224.78 105.81 225.45 106.87 226.12 107.93 C 227.39 107.95 228.66 107.97 229.93 107.99 C 230.68 106.57 231.44 105.16 232.19 103.75 C 230.28 102.60 228.33 101.51 226.36 100.48 M 165.04 125.00 C 165.02 126.60 165.01 128.20 165.00 129.80 C 167.56 129.90 170.12 129.77 172.67 129.48 C 171.78 127.12 170.80 124.80 169.71 122.54 C 168.16 123.36 166.60 124.18 165.04 125.00 M 105.09 124.44 C 100.14 145.60 95.90 166.92 91.16 188.14 C 89.84 194.29 88.82 200.51 88.09 206.76 C 105.60 194.68 122.87 182.10 138.90 168.10 C 136.12 167.00 133.44 165.61 130.55 164.84 C 125.81 164.14 120.94 165.86 116.23 164.79 C 111.70 161.58 109.50 155.30 112.15 150.17 C 115.73 146.60 120.95 145.84 125.70 145.26 C 127.83 148.50 129.86 151.82 132.08 155.01 C 134.62 158.69 139.06 160.27 142.80 162.37 C 153.11 167.56 163.03 173.51 173.40 178.60 C 179.56 181.70 185.48 176.22 190.73 173.56 C 162.51 156.64 134.14 139.89 105.09 124.44 M 117.07 154.54 C 118.28 156.03 118.58 159.44 121.10 158.89 C 122.58 158.81 123.80 157.85 124.89 156.95 C 124.49 155.03 123.72 153.21 122.96 151.41 C 121.00 152.45 119.03 153.49 117.07 154.54 Z" />
</g>
<g id="#ffffffff">
<path fill="#ffffff" opacity="1.00" d=" M 120.40 52.56 C 141.99 72.97 161.44 95.54 182.16 116.84 C 207.04 143.94 232.85 170.17 257.79 197.22 C 260.16 199.73 262.40 202.38 264.30 205.27 C 259.01 202.96 254.26 199.64 249.37 196.63 C 202.53 167.19 155.19 138.54 108.55 108.80 C 109.79 102.39 110.56 95.79 113.02 89.69 C 126.42 100.09 139.89 110.38 153.37 120.67 C 159.04 124.43 158.44 133.16 164.61 136.42 C 172.91 140.29 182.08 130.17 177.82 122.23 C 174.46 115.58 165.51 119.33 159.94 116.01 C 144.44 105.14 130.07 92.75 114.71 81.69 C 115.89 71.86 117.95 62.15 120.40 52.56 Z" />
<path fill="#ffffff" opacity="1.00" d=" M 233.14 53.10 C 233.64 53.28 234.66 53.63 235.17 53.81 C 242.49 85.83 249.98 117.81 257.18 149.85 C 259.95 162.07 263.49 174.18 264.80 186.68 C 247.22 169.76 231.84 150.67 214.57 133.41 C 212.27 130.45 207.87 127.72 208.30 123.45 C 211.99 120.61 215.47 117.10 219.93 115.47 C 225.94 114.01 234.49 115.41 237.40 108.37 C 239.93 103.65 236.85 99.45 233.79 96.21 C 230.22 94.51 225.66 94.22 222.11 96.07 C 218.31 100.10 218.54 106.53 213.92 109.90 C 210.23 113.12 206.43 117.54 201.20 117.88 C 195.86 114.13 192.15 108.54 187.63 103.91 C 202.31 86.54 218.02 70.08 233.14 53.10 Z" />
<path fill="#ffffff" opacity="1.00" d=" M 226.36 100.48 C 228.33 101.51 230.28 102.60 232.19 103.75 C 231.44 105.16 230.68 106.57 229.93 107.99 C 228.66 107.97 227.39 107.95 226.12 107.93 C 225.45 106.87 224.78 105.81 224.12 104.75 C 224.86 103.32 225.61 101.90 226.36 100.48 Z" />
<path fill="#ffffff" opacity="1.00" d=" M 165.04 125.00 C 166.60 124.18 168.16 123.36 169.71 122.54 C 170.80 124.80 171.78 127.12 172.67 129.48 C 170.12 129.77 167.56 129.90 165.00 129.80 C 165.01 128.20 165.02 126.60 165.04 125.00 Z" />
<path fill="#ffffff" opacity="1.00" d=" M 105.09 124.44 C 134.14 139.89 162.51 156.64 190.73 173.56 C 185.48 176.22 179.56 181.70 173.40 178.60 C 163.03 173.51 153.11 167.56 142.80 162.37 C 139.06 160.27 134.62 158.69 132.08 155.01 C 129.86 151.82 127.83 148.50 125.70 145.26 C 120.95 145.84 115.73 146.60 112.15 150.17 C 109.50 155.30 111.70 161.58 116.23 164.79 C 120.94 165.86 125.81 164.14 130.55 164.84 C 133.44 165.61 136.12 167.00 138.90 168.10 C 122.87 182.10 105.60 194.68 88.09 206.76 C 88.82 200.51 89.84 194.29 91.16 188.14 C 95.90 166.92 100.14 145.60 105.09 124.44 Z" />
<path fill="#ffffff" opacity="1.00" d=" M 117.07 154.54 C 119.03 153.49 121.00 152.45 122.96 151.41 C 123.72 153.21 124.49 155.03 124.89 156.95 C 123.80 157.85 122.58 158.81 121.10 158.89 C 118.58 159.44 118.28 156.03 117.07 154.54 Z" />
</g>
</svg>
